M48
; DRILL file {KiCad 5.99.0-unknown-16ebb3a433~128~ubuntu20.04.1} date Mon May  3 05:09:03 2021
; FORMAT={-:-/ absolute / metric / decimal}
; #@! TF.CreationDate,2021-05-03T05:09:03+03:00
; #@! TF.GenerationSoftware,Kicad,Pcbnew,5.99.0-unknown-16ebb3a433~128~ubuntu20.04.1
; #@! TF.FileFunction,MixedPlating,1,4
FMAT,2
METRIC
; #@! TA.AperFunction,Plated,PTH,ViaDrill
T1C0.200
; #@! TA.AperFunction,Plated,PTH,ComponentDrill
T2C0.500
; #@! TA.AperFunction,Plated,PTH,ComponentDrill
T3C0.600
; #@! TA.AperFunction,Plated,PTH,ComponentDrill
T4C0.800
; #@! TA.AperFunction,Plated,PTH,ComponentDrill
T5C0.850
; #@! TA.AperFunction,Plated,PTH,ComponentDrill
T6C1.020
; #@! TA.AperFunction,Plated,PTH,ComponentDrill
T7C1.400
; #@! TA.AperFunction,Plated,PTH,ComponentDrill
T8C3.099
; #@! TA.AperFunction,Plated,PTH,ComponentDrill
T9C3.200
; #@! TA.AperFunction,NonPlated,NPTH,ComponentDrill
T10C1.500
; #@! TA.AperFunction,NonPlated,NPTH,ComponentDrill
T11C1.800
%
G90
G05
T1
X80.05Y-94.2
X80.15Y-117.2
X80.35Y-120.6
X80.85Y-111.2
X81.05Y-120.1
X81.05Y-123.0
X81.15Y-107.0
X81.15Y-121.2
X81.35Y-97.6
X81.35Y-102.6
X81.55Y-112.6
X81.75Y-110.0
X81.75Y-123.6
X81.95Y-111.6
X83.06Y-123.3
X83.1Y-114.475
X83.13Y-125.31
X83.19Y-127.2
X83.875Y-115.225
X85.55Y-122.2
X86.05Y-91.848
X86.55Y-121.8
X87.15Y-94.6
X87.35Y-103.175
X87.714Y-110.389
X88.05Y-94.4
X88.2Y-101.33
X88.22Y-125.41
X88.75Y-117.2
X88.95Y-95.1
X89.0Y-100.262
X89.07Y-105.0
X89.125Y-113.525
X89.15Y-112.275
X89.15Y-122.6
X89.41Y-101.31
X89.425Y-102.075
X89.55Y-111.25
X89.75Y-94.6
X89.85Y-95.629
X89.85Y-117.075
X89.95Y-87.0
X90.06Y-92.52
X90.1Y-100.23
X90.1Y-113.075
X90.15Y-114.1
X90.188Y-101.225
X90.2Y-122.85
X90.312Y-112.1
X90.6Y-96.2
X90.95Y-101.05
X90.95Y-102.075
X90.975Y-99.6
X90.975Y-117.3
X91.05Y-114.125
X91.075Y-111.25
X91.1Y-112.525
X91.35Y-96.8
X91.712Y-101.225
X91.837Y-112.1
X92.475Y-102.075
X92.6Y-111.25
X93.35Y-111.35
X93.7Y-101.95
X94.375Y-103.55
X94.4Y-109.8
X94.95Y-86.4
X95.35Y-91.4
X95.475Y-121.25
X96.2Y-105.1
X96.2Y-106.13
X96.2Y-107.16
X96.2Y-108.19
X96.51Y-105.615
X96.51Y-106.645
X96.51Y-107.675
X96.604Y-120.895
X96.65Y-130.825
X96.82Y-105.1
X96.82Y-106.13
X96.82Y-107.16
X96.82Y-108.19
X96.825Y-128.75
X96.98Y-129.8
X97.13Y-105.615
X97.13Y-106.645
X97.13Y-107.675
X97.44Y-105.1
X97.44Y-106.13
X97.44Y-107.16
X97.44Y-108.19
X97.7Y-130.9
X97.75Y-105.615
X97.75Y-106.645
X97.75Y-107.675
X97.925Y-128.45
X98.06Y-105.1
X98.06Y-106.13
X98.06Y-107.16
X98.06Y-108.19
X98.2Y-127.662
X98.2Y-129.188
X98.2Y-129.975
X98.225Y-99.0
X98.37Y-105.615
X98.37Y-106.645
X98.37Y-107.675
X98.68Y-105.1
X98.68Y-106.13
X98.68Y-107.16
X98.68Y-108.19
X98.95Y-99.775
X98.99Y-105.615
X98.99Y-106.645
X98.99Y-107.675
X99.05Y-126.9
X99.05Y-128.425
X99.05Y-129.95
X99.3Y-105.1
X99.3Y-106.13
X99.3Y-107.16
X99.3Y-108.19
X99.75Y-131.85
X99.95Y-91.2
X100.35Y-86.4
X100.55Y-94.4
X100.55Y-115.2
X100.55Y-125.125
X101.825Y-93.95
X101.858Y-130.538
X102.1Y-120.2
X102.1Y-121.23
X102.1Y-122.26
X102.1Y-123.29
X102.258Y-116.86
X102.41Y-120.715
X102.41Y-121.745
X102.41Y-122.775
X102.55Y-112.0
X102.64Y-105.258
X102.72Y-120.2
X102.72Y-121.23
X102.72Y-122.26
X102.72Y-123.29
X103.0Y-107.35
X103.03Y-120.715
X103.03Y-121.745
X103.03Y-122.775
X103.15Y-116.25
X103.275Y-106.2
X103.34Y-120.2
X103.34Y-121.23
X103.34Y-122.26
X103.34Y-123.29
X103.35Y-113.8
X103.65Y-120.715
X103.65Y-121.745
X103.65Y-122.775
X103.96Y-120.2
X103.96Y-121.23
X103.96Y-122.26
X103.96Y-123.29
X104.13Y-86.7
X104.27Y-120.715
X104.27Y-121.745
X104.27Y-122.775
X104.275Y-116.55
X104.35Y-112.45
X104.58Y-120.2
X104.58Y-121.23
X104.58Y-122.26
X104.58Y-123.29
X104.85Y-107.225
X104.89Y-120.715
X104.89Y-121.745
X104.89Y-122.775
X105.2Y-120.2
X105.2Y-121.23
X105.2Y-122.26
X105.2Y-123.29
X105.375Y-94.05
X105.4Y-93.15
X105.52Y-86.15
X105.975Y-92.125
X106.05Y-110.6
X106.075Y-108.0
X106.1Y-109.225
X106.425Y-93.1
X106.8Y-125.1
X106.95Y-111.475
X106.975Y-94.1
X107.0Y-107.15
X107.225Y-92.15
X107.38Y-131.771
X107.4Y-93.312
X107.4Y-94.837
X107.8Y-105.75
X108.15Y-96.725
X108.25Y-92.55
X108.25Y-94.075
X108.25Y-95.6
X108.25Y-126.9
X108.25Y-128.425
X108.25Y-129.95
X108.375Y-125.825
X109.05Y-90.85
X109.1Y-127.662
X109.1Y-129.188
X109.125Y-107.525
X109.15Y-115.8
X109.25Y-130.3
X109.525Y-128.4
X109.675Y-110.75
X109.7Y-97.4
X109.85Y-108.6
X109.9Y-129.4
X110.525Y-130.375
X111.125Y-128.45
X111.175Y-129.55
X111.29Y-136.47
X111.3Y-99.2
X111.3Y-100.23
X111.3Y-101.26
X111.3Y-102.29
X111.35Y-116.2
X111.61Y-99.715
X111.61Y-100.745
X111.61Y-101.775
X111.92Y-99.2
X111.92Y-100.23
X111.92Y-101.26
X111.92Y-102.29
X111.96Y-111.17
X112.23Y-99.715
X112.23Y-100.745
X112.23Y-101.775
X112.31Y-135.34
X112.425Y-106.6
X112.54Y-99.2
X112.54Y-100.23
X112.54Y-101.26
X112.54Y-102.29
X112.8Y-108.5
X112.85Y-99.715
X112.85Y-100.745
X112.85Y-101.775
X113.16Y-99.2
X113.16Y-100.23
X113.16Y-101.26
X113.16Y-102.29
X113.325Y-115.425
X113.4Y-105.625
X113.47Y-99.715
X113.47Y-100.745
X113.47Y-101.775
X113.78Y-99.2
X113.78Y-100.23
X113.78Y-101.26
X113.78Y-102.29
X113.86Y-117.242
X113.875Y-116.4
X114.09Y-99.715
X114.09Y-100.745
X114.09Y-101.775
X114.1Y-129.9
X114.35Y-106.6
X114.4Y-99.2
X114.4Y-100.23
X114.4Y-101.26
X114.4Y-102.29
X114.45Y-92.2
X114.7Y-128.55
X115.35Y-129.2
X115.95Y-97.375
X116.75Y-90.45
X117.2Y-114.3
X117.2Y-115.33
X117.2Y-116.36
X117.2Y-117.39
X117.45Y-92.55
X117.45Y-94.075
X117.45Y-95.6
X117.51Y-114.815
X117.51Y-115.845
X117.51Y-116.875
X117.7Y-96.75
X117.74Y-122.74
X117.82Y-114.3
X117.82Y-115.33
X117.82Y-116.36
X117.82Y-117.39
X118.13Y-114.815
X118.13Y-115.845
X118.13Y-116.875
X118.3Y-92.525
X118.3Y-93.312
X118.3Y-94.837
X118.325Y-123.825
X118.44Y-114.3
X118.44Y-115.33
X118.44Y-116.36
X118.44Y-117.39
X118.575Y-94.05
X118.75Y-114.815
X118.75Y-115.845
X118.75Y-116.875
X118.8Y-91.6
X119.06Y-114.3
X119.06Y-115.33
X119.06Y-116.36
X119.06Y-117.39
X119.37Y-114.815
X119.37Y-115.845
X119.37Y-116.875
X119.52Y-92.7
X119.675Y-93.75
X119.68Y-114.3
X119.68Y-115.33
X119.68Y-116.36
X119.68Y-117.39
X119.75Y-101.975
X119.85Y-91.675
X119.99Y-114.815
X119.99Y-115.845
X119.99Y-116.875
X120.3Y-114.3
X120.3Y-115.33
X120.3Y-116.36
X120.3Y-117.39
X120.35Y-129.4
X120.675Y-101.225
X122.1Y-112.7
X122.125Y-118.95
X123.15Y-90.6
X123.2Y-111.1
X123.3Y-120.55
X123.35Y-99.6
X123.55Y-97.6
X123.9Y-111.25
X123.95Y-131.6
X123.95Y-134.4
X124.025Y-120.425
X124.662Y-110.4
X124.787Y-121.275
X125.15Y-126.4
X125.15Y-135.4
X125.4Y-109.975
X125.425Y-111.25
X125.45Y-108.375
X125.525Y-122.9
X125.55Y-104.825
X125.55Y-120.425
X125.55Y-121.45
X125.871Y-100.646
X126.188Y-110.4
X126.312Y-121.275
X126.35Y-99.6
X126.4Y-109.425
X126.4Y-122.27
X126.6Y-108.375
X126.95Y-111.25
X127.0Y-129.8
X127.075Y-120.425
X127.09Y-121.19
X127.25Y-133.325
X127.35Y-110.225
X127.45Y-105.05
X127.5Y-122.237
X127.5Y-130.7
X127.525Y-108.95
X127.538Y-117.642
X127.725Y-132.625
X127.75Y-129.0
X127.779Y-131.694
X128.125Y-101.675
X128.3Y-121.17
X128.55Y-104.6
X128.55Y-131.0
X128.75Y-85.4
X128.786Y-112.111
X128.95Y-101.2
X129.05Y-102.25
X129.05Y-120.075
X129.8Y-98.2
X130.75Y-104.0
X131.385Y-106.125
X131.55Y-129.4
X132.135Y-106.85
X132.875Y-122.975
X133.15Y-91.6
X134.35Y-129.0
X134.95Y-93.6
T2
X80.1Y-87.65
X80.1Y-134.75
X80.803Y-85.953
X80.803Y-89.347
X80.803Y-133.053
X80.803Y-136.447
X82.5Y-85.25
X82.5Y-90.05
X82.5Y-132.35
X82.5Y-137.15
X84.197Y-85.953
X84.197Y-89.347
X84.197Y-133.053
X84.197Y-136.447
X84.9Y-87.65
X84.9Y-134.75
X130.1Y-87.75
X130.1Y-134.75
X130.803Y-86.053
X130.803Y-89.447
X130.803Y-133.053
X130.803Y-136.447
X132.5Y-85.35
X132.5Y-90.15
X132.5Y-132.35
X132.5Y-137.15
X134.197Y-86.053
X134.197Y-89.447
X134.197Y-133.053
X134.197Y-136.447
X134.9Y-87.75
X134.9Y-134.75
T3
X80.9Y-96.5
X82.15Y-96.5
X83.4Y-96.5
X84.65Y-96.5
X85.9Y-96.5
X87.15Y-96.5
X88.05Y-136.2
X89.3Y-136.2
X90.55Y-136.2
X91.8Y-136.2
X93.05Y-136.2
X94.3Y-136.2
X120.7Y-86.3
X121.95Y-86.3
X123.2Y-86.3
X124.45Y-86.3
X125.7Y-86.3
X126.95Y-86.3
X133.95Y-96.95
X133.95Y-98.2
X133.95Y-99.45
X133.95Y-100.7
X133.95Y-101.95
X133.95Y-103.2
T4
X92.25Y-86.65
X92.25Y-91.65
X128.4Y-125.92
X133.4Y-125.92
T5
X83.55Y-103.9
X83.55Y-105.9
X83.55Y-107.9
X83.55Y-109.9
X83.55Y-111.9
X85.55Y-103.9
X85.55Y-105.9
X85.55Y-107.9
X85.55Y-109.9
X85.55Y-111.9
X100.85Y-134.1
X100.85Y-136.1
X102.85Y-134.1
X102.85Y-136.1
X104.85Y-134.1
X104.85Y-136.1
X106.85Y-134.1
X106.85Y-136.1
X107.15Y-86.5
X107.15Y-88.5
X108.85Y-134.1
X108.85Y-136.1
X109.15Y-86.5
X109.15Y-88.5
X111.15Y-86.5
X111.15Y-88.5
X113.15Y-86.5
X113.15Y-88.5
X115.15Y-86.5
X115.15Y-88.5
X131.45Y-109.0
X131.45Y-111.0
X131.45Y-113.0
X131.45Y-115.0
X131.45Y-117.0
X133.45Y-109.0
X133.45Y-111.0
X133.45Y-113.0
X133.45Y-115.0
X133.45Y-117.0
T6
X58.11Y-87.12
X58.11Y-89.66
X58.11Y-92.2
X58.11Y-94.74
X58.11Y-97.28
X58.11Y-99.82
X58.11Y-102.36
X58.11Y-104.9
X58.11Y-107.44
X58.11Y-109.98
X58.11Y-112.52
X58.11Y-115.06
X58.11Y-117.6
X58.11Y-120.14
X58.11Y-122.68
X58.11Y-125.22
X58.11Y-127.76
X58.11Y-130.3
X58.11Y-132.84
X58.11Y-135.38
X64.46Y-87.35
X67.0Y-87.35
X69.54Y-87.35
X75.89Y-87.12
X75.89Y-89.66
X75.89Y-92.2
X75.89Y-94.74
X75.89Y-97.28
X75.89Y-99.82
X75.89Y-102.36
X75.89Y-104.9
X75.89Y-107.44
X75.89Y-109.98
X75.89Y-112.52
X75.89Y-115.06
X75.89Y-117.6
X75.89Y-120.14
X75.89Y-122.68
X75.89Y-125.22
X75.89Y-127.76
X75.89Y-130.3
X75.89Y-132.84
X75.89Y-135.38
T7
X116.22Y-131.15
X116.22Y-135.35
X121.72Y-131.15
X121.72Y-135.35
T8
X90.75Y-128.75
X125.75Y-93.75
T9
X82.5Y-87.65
X82.5Y-134.75
X132.5Y-87.75
X132.5Y-134.75
T10
X64.575Y-132.22
X69.425Y-132.22
T11
X64.275Y-135.25
X69.725Y-135.25
T0
M30
