M48
; DRILL file {KiCad 5.1.9-73d0e3b20d~88~ubuntu20.04.1} date Sun Apr 18 02:12:24 2021
; FORMAT={-:-/ absolute / inch / decimal}
; #@! TF.CreationDate,2021-04-18T02:12:24+03:00
; #@! TF.GenerationSoftware,Kicad,Pcbnew,5.1.9-73d0e3b20d~88~ubuntu20.04.1
; #@! TF.FileFunction,Plated,1,4,PTH
FMAT,2
INCH
T1C0.0118
T2C0.0157
T3C0.0197
T4C0.0256
T5C0.0276
T6C0.0315
T7C0.0354
T8C0.0394
T9C0.0402
T10C0.0551
T11C0.0630
T12C0.1260
%
G90
G05
T1
X1.2276Y-1.1984
X1.2315Y-3.2854
X1.2354Y-3.678
X1.2382Y-3.3909
X1.2409Y-1.9551
X1.2413Y-1.5402
X1.2413Y-1.6976
X1.2413Y-1.8551
X1.25Y-2.9724
X1.25Y-3.0413
X1.2693Y-3.5406
X1.272Y-2.0591
X1.3039Y-1.3504
X1.3094Y-3.3559
X1.3134Y-3.413
X1.337Y-3.6795
X1.3484Y-2.9724
X1.3484Y-3.0413
X1.3575Y-3.378
X1.3878Y-1.8209
X1.437Y-3.0118
X1.437Y-3.061
X1.452Y-2.862
X1.502Y-2.0098
X1.5209Y-3.0173
X1.5256Y-1.7913
X1.5657Y-3.0161
X1.5796Y-2.6188
X1.584Y-2.574
X1.5846Y-1.2764
X1.5993Y-2.5131
X1.6004Y-1.9165
X1.6012Y-2.479
X1.6027Y-2.418
X1.6039Y-1.4205
X1.6051Y-3.0106
X1.608Y-2.5477
X1.6132Y-2.782
X1.6132Y-2.8214
X1.6132Y-2.8608
X1.6132Y-2.9001
X1.626Y-1.938
X1.6318Y-1.902
X1.6343Y-1.972
X1.6374Y-2.0449
X1.6465Y-3.013
X1.6526Y-2.782
X1.6526Y-2.9001
X1.6604Y-2.1742
X1.668Y-2.736
X1.68Y-1.956
X1.6976Y-1.1945
X1.698Y-3.642
X1.6988Y-1.6783
X1.7106Y-1.5165
X1.7255Y-2.0456
X1.7255Y-2.118
X1.7353Y-2.4611
X1.7353Y-2.5054
X1.7353Y-2.5497
X1.7353Y-2.594
X1.7353Y-2.6383
X1.7471Y-2.282
X1.7471Y-2.3214
X1.7471Y-2.7623
X1.755Y-2.7899
X1.7555Y-1.8193
X1.7609Y-2.0456
X1.7796Y-2.4611
X1.7796Y-2.5054
X1.7796Y-2.5497
X1.7796Y-2.594
X1.7796Y-2.6383
X1.7963Y-2.0456
X1.8239Y-2.4611
X1.8239Y-2.5054
X1.8239Y-2.5497
X1.8239Y-2.594
X1.8239Y-2.6383
X1.8258Y-2.7899
X1.8337Y-2.7623
X1.8357Y-2.0456
X1.8357Y-2.118
X1.8377Y-2.282
X1.8377Y-2.3253
X1.8682Y-2.4611
X1.8682Y-2.5054
X1.8682Y-2.5497
X1.8682Y-2.594
X1.8682Y-2.6383
X1.8731Y-2.0852
X1.8731Y-2.1206
X1.881Y-2.9434
X1.881Y-2.9789
X1.8996Y-3.4571
X1.9046Y-2.908
X1.9125Y-2.0852
X1.9125Y-2.1206
X1.9125Y-2.4611
X1.9125Y-2.5054
X1.9125Y-2.5497
X1.9125Y-2.594
X1.9125Y-2.6383
X1.944Y-2.9001
X1.944Y-2.9395
X1.944Y-2.9789
X1.9476Y-2.0165
X1.9499Y-2.7781
X1.95Y-3.492
X1.95Y-3.57
X1.9518Y-2.0852
X1.9518Y-2.1206
X1.956Y-3.534
X1.964Y-2.2909
X1.9671Y-2.326
X1.9675Y-3.4281
X1.9894Y-2.884
X1.9917Y-2.25
X2.003Y-2.845
X2.0308Y-2.148
X2.0308Y-2.232
X2.0328Y-2.265
X2.0367Y-2.6521
X2.0367Y-2.6954
X2.0367Y-2.7366
X2.0684Y-3.5144
X2.071Y-2.927
X2.106Y-1.926
X2.1161Y-2.9331
X2.1327Y-1.9035
X2.1362Y-1.9728
X2.1438Y-2.6024
X2.148Y-2.514
X2.148Y-3.426
X2.1534Y-2.479
X2.1549Y-2.418
X2.1585Y-2.5743
X2.16Y-1.944
X2.1604Y-2.5447
X2.1646Y-3.6937
X2.1654Y-2.782
X2.1654Y-2.8214
X2.1654Y-2.8608
X2.1654Y-2.9001
X2.1677Y-3.5555
X2.1677Y-3.6362
X2.1744Y-3.4921
X2.19Y-1.92
X2.1959Y-1.9802
X2.2048Y-2.782
X2.2048Y-2.9001
X2.214Y-1.9519
X2.2158Y-2.1742
X2.2201Y-1.9083
X2.2287Y-1.9799
X2.2293Y-2.7465
X2.2325Y-2.7134
X2.2535Y-3.6862
X2.2638Y-1.9803
X2.2732Y-3.4744
X2.2776Y-2.0456
X2.2776Y-2.118
X2.2875Y-2.4611
X2.2875Y-2.5054
X2.2875Y-2.5497
X2.2875Y-2.594
X2.2875Y-2.6383
X2.2993Y-2.282
X2.2993Y-2.3214
X2.2993Y-2.7623
X2.3071Y-2.7899
X2.3131Y-2.0456
X2.3317Y-2.4611
X2.3317Y-2.5054
X2.3317Y-2.5497
X2.3317Y-2.594
X2.3317Y-2.6383
X2.3354Y-3.6504
X2.3485Y-2.0456
X2.376Y-2.4611
X2.376Y-2.5054
X2.376Y-2.5497
X2.376Y-2.594
X2.376Y-2.6383
X2.3859Y-2.7623
X2.3879Y-2.0456
X2.3879Y-2.118
X2.3898Y-2.282
X2.3898Y-2.3253
X2.3984Y-3.4764
X2.4203Y-2.4611
X2.4203Y-2.5054
X2.4203Y-2.5497
X2.4203Y-2.594
X2.4203Y-2.6383
X2.4253Y-2.0852
X2.4253Y-2.1206
X2.4331Y-2.9434
X2.4331Y-2.9789
X2.4425Y-3.6602
X2.4567Y-2.908
X2.4646Y-2.0852
X2.4646Y-2.1206
X2.4646Y-2.4611
X2.4646Y-2.5054
X2.4646Y-2.5497
X2.4646Y-2.594
X2.4646Y-2.6383
X2.4949Y-1.9984
X2.4961Y-2.9001
X2.4961Y-2.9395
X2.4961Y-2.9789
X2.5007Y-2.7781
X2.504Y-2.0852
X2.504Y-2.1206
X2.5091Y-3.4965
X2.5228Y-2.322
X2.5232Y-2.2906
X2.5406Y-2.8843
X2.5438Y-2.25
X2.55Y-2.844
X2.563Y-3.6465
X2.5888Y-2.6521
X2.5888Y-2.6954
X2.5888Y-2.7366
X2.5901Y-2.148
X2.5901Y-2.232
X2.592Y-2.265
X2.6232Y-2.927
X2.6505Y-1.9166
X2.6669Y-3.6323
X2.6673Y-2.9331
X2.6742Y-1.8917
X2.6969Y-3.4945
X2.6988Y-2.6053
X2.7036Y-2.5131
X2.7055Y-2.479
X2.7071Y-2.418
X2.7097Y-2.5755
X2.712Y-1.926
X2.7125Y-2.546
X2.7176Y-2.782
X2.7176Y-2.8214
X2.7176Y-2.8608
X2.7176Y-2.9001
X2.7378Y-1.9031
X2.748Y-1.956
X2.7569Y-2.782
X2.7569Y-2.9001
X2.7662Y-1.9262
X2.7715Y-2.178
X2.7815Y-2.7465
X2.784Y-1.956
X2.7846Y-2.7134
X2.787Y-3.6421
X2.789Y-1.9909
X2.7909Y-3.4984
X2.8298Y-2.0456
X2.8298Y-2.118
X2.8303Y-1.9248
X2.8396Y-2.4611
X2.8396Y-2.5054
X2.8396Y-2.5497
X2.8396Y-2.594
X2.8396Y-2.6383
X2.8449Y-1.8894
X2.8514Y-2.282
X2.8514Y-2.3214
X2.8514Y-2.7623
X2.8593Y-2.7899
X2.8634Y-1.9929
X2.8652Y-2.0456
X2.8768Y-3.6543
X2.8839Y-2.4611
X2.8839Y-2.5054
X2.8839Y-2.5497
X2.8839Y-2.594
X2.8839Y-2.6383
X2.9007Y-2.0456
X2.9008Y-3.4724
X2.9282Y-2.4611
X2.9282Y-2.5054
X2.9282Y-2.5497
X2.9282Y-2.594
X2.9282Y-2.6383
X2.9302Y-2.7899
X2.938Y-2.7623
X2.94Y-2.0456
X2.94Y-2.118
X2.942Y-2.282
X2.942Y-2.3253
X2.9725Y-2.4611
X2.9725Y-2.5054
X2.9725Y-2.5497
X2.9725Y-2.594
X2.9725Y-2.6383
X2.9768Y-3.6602
X2.9774Y-2.0852
X2.9774Y-2.1206
X2.9853Y-2.9434
X2.9853Y-2.9789
X3.0089Y-2.908
X3.0168Y-2.0852
X3.0168Y-2.1206
X3.0168Y-2.4611
X3.0168Y-2.5054
X3.0168Y-2.5497
X3.0168Y-2.594
X3.0168Y-2.6383
X3.0268Y-3.4783
X3.0483Y-2.9001
X3.0483Y-2.9395
X3.0483Y-2.9789
X3.0562Y-2.0852
X3.0562Y-2.1206
X3.0683Y-2.2909
X3.0715Y-2.326
X3.0758Y-2.7899
X3.0787Y-3.6583
X3.0955Y-2.8844
X3.096Y-2.25
X3.1073Y-2.845
X3.141Y-2.6521
X3.141Y-2.6954
X3.141Y-2.7366
X3.144Y-2.148
X3.144Y-2.232
X3.147Y-2.265
X3.1752Y-2.927
X3.2047Y-1.961
X3.2103Y-1.902
X3.2185Y-2.9331
X3.2205Y-1.8732
X3.2343Y-3.4843
X3.252Y-2.6031
X3.2524Y-3.6783
X3.2558Y-2.5131
X3.2577Y-2.479
X3.2591Y-1.8961
X3.2592Y-2.418
X3.2608Y-2.5738
X3.264Y-1.926
X3.265Y-2.5444
X3.2697Y-2.782
X3.2697Y-2.8214
X3.2697Y-2.8608
X3.2697Y-2.9001
X3.2883Y-1.902
X3.3Y-1.956
X3.3091Y-2.782
X3.3091Y-2.9001
X3.3118Y-1.8823
X3.318Y-1.926
X3.3217Y-1.9823
X3.33Y-2.178
X3.3337Y-2.7465
X3.336Y-1.956
X3.3368Y-2.7134
X3.3453Y-1.913
X3.382Y-2.0456
X3.382Y-2.118
X3.3918Y-2.4611
X3.3918Y-2.5054
X3.3918Y-2.5497
X3.3918Y-2.594
X3.3918Y-2.6383
X3.4036Y-2.282
X3.4036Y-2.3214
X3.4036Y-2.7623
X3.4115Y-2.7899
X3.4174Y-2.0456
X3.42Y-3.462
X3.4361Y-2.4611
X3.4361Y-2.5054
X3.4361Y-2.5497
X3.4361Y-2.594
X3.4361Y-2.6383
X3.4516Y-3.5362
X3.4528Y-3.6024
X3.4528Y-2.0456
X3.4645Y-3.6808
X3.4804Y-2.4611
X3.4804Y-2.5054
X3.4804Y-2.5497
X3.4804Y-2.594
X3.4804Y-2.6383
X3.4823Y-2.7899
X3.4902Y-2.7623
X3.4922Y-2.0456
X3.4922Y-2.118
X3.4941Y-2.282
X3.4941Y-2.3253
X3.522Y-3.468
X3.5247Y-2.4611
X3.5247Y-2.5054
X3.5247Y-2.5497
X3.5247Y-2.594
X3.5247Y-2.6383
X3.5268Y-3.6295
X3.5296Y-2.0852
X3.5296Y-2.1206
X3.5375Y-2.9434
X3.5375Y-2.9789
X3.5611Y-2.908
X3.569Y-2.0852
X3.569Y-2.1206
X3.569Y-2.4611
X3.569Y-2.5054
X3.569Y-2.5497
X3.569Y-2.594
X3.569Y-2.6383
X3.5785Y-3.6808
X3.6004Y-2.9001
X3.6004Y-2.9395
X3.6004Y-2.9789
X3.6083Y-2.0852
X3.6083Y-2.1206
X3.618Y-3.468
X3.618Y-3.558
X3.6205Y-2.2909
X3.6236Y-2.326
X3.628Y-2.7899
X3.6477Y-2.8844
X3.6482Y-2.25
X3.6504Y-3.6283
X3.655Y-2.845
X3.6811Y-2.7339
X3.6906Y-3.5374
X3.6932Y-2.6521
X3.6932Y-2.6954
X3.6962Y-2.148
X3.6962Y-2.232
X3.6985Y-3.6808
X3.6992Y-2.265
X3.72Y-3.468
X3.7273Y-2.927
X3.7488Y-3.6283
X3.7625Y-1.9086
X3.7697Y-2.9331
X3.7921Y-1.9067
X3.8005Y-3.6808
X3.8022Y-2.5963
X3.8079Y-2.5131
X3.8099Y-2.479
X3.813Y-2.2693
X3.813Y-3.6098
X3.8157Y-2.0067
X3.816Y-1.926
X3.8169Y-2.5414
X3.8176Y-2.571
X3.8219Y-2.782
X3.8219Y-2.8214
X3.8219Y-2.8608
X3.8219Y-2.9001
X3.84Y-3.468
X3.852Y-1.956
X3.8613Y-2.782
X3.8613Y-2.9001
X3.8697Y-1.9319
X3.8724Y-3.6256
X3.8822Y-2.1778
X3.8858Y-2.7465
X3.888Y-1.956
X3.889Y-2.7134
X3.8965Y-3.6808
X3.8988Y-2.0091
X3.9341Y-2.0456
X3.9341Y-2.118
X3.944Y-2.4611
X3.944Y-2.5054
X3.944Y-2.5497
X3.944Y-2.594
X3.944Y-2.6383
X3.954Y-3.468
X3.9558Y-2.282
X3.9558Y-2.3214
X3.9558Y-2.7623
X3.9634Y-3.6193
X3.9636Y-2.7899
X3.9696Y-2.0456
X3.9882Y-2.4611
X3.9882Y-2.5054
X3.9882Y-2.5497
X3.9882Y-2.594
X3.9882Y-2.6383
X3.9985Y-3.6868
X4.005Y-2.0456
X4.0325Y-2.4611
X4.0325Y-2.5054
X4.0325Y-2.5497
X4.0325Y-2.594
X4.0325Y-2.6383
X4.0345Y-2.7899
X4.038Y-3.468
X4.038Y-3.558
X4.038Y-3.666
X4.039Y-1.3661
X4.0424Y-2.7623
X4.0429Y-1.3343
X4.0444Y-2.0456
X4.0444Y-2.118
X4.0463Y-2.282
X4.0463Y-2.3253
X4.0768Y-2.4611
X4.0768Y-2.5054
X4.0768Y-2.5497
X4.0768Y-2.594
X4.0768Y-2.6383
X4.0817Y-2.0852
X4.0817Y-2.1206
X4.0826Y-1.9666
X4.0896Y-2.9434
X4.0896Y-2.9789
X4.1132Y-2.908
X4.1211Y-2.0852
X4.1211Y-2.1206
X4.1211Y-2.4611
X4.1211Y-2.5054
X4.1211Y-2.5497
X4.1211Y-2.594
X4.1211Y-2.6383
X4.1526Y-2.9001
X4.1526Y-2.9395
X4.1605Y-2.0852
X4.1605Y-2.1206
X4.1693Y-2.2835
X4.1802Y-2.7899
X4.1802Y-2.9749
X4.1917Y-1.5083
X4.1999Y-2.8844
X4.207Y-2.845
X4.2098Y-3.0594
X4.2154Y-2.1378
X4.2161Y-2.324
X4.2171Y-2.278
X4.2176Y-1.4929
X4.2191Y-2.2398
X4.2256Y-1.3603
X4.2314Y-1.4184
X4.2453Y-2.6954
X4.2453Y-2.7366
X4.2465Y-1.6362
X4.248Y-1.7244
X4.2516Y-2.6508
X4.2527Y-3.0386
X4.2618Y-1.3894
X4.2638Y-1.6606
X4.2701Y-1.7031
X4.3134Y-1.7091
X4.315Y-3.0276
X4.3252Y-1.4949
X4.3421Y-1.6976
X4.3484Y-3.0039
X4.3547Y-2.7484
X4.3551Y-1.4953
X4.356Y-2.502
X4.356Y-2.712
X4.3561Y-2.6594
X4.3575Y-2.6102
X4.3583Y-2.5512
X4.3594Y-1.9606
X4.3614Y-3.122
X4.3693Y-3.0657
X4.387Y-1.3466
X4.3874Y-1.95
X4.3902Y-1.3075
X4.411Y-1.3285
X4.425Y-2.0014
X4.4302Y-2.8126
X4.4544Y-1.826
X4.4551Y-1.5985
X4.4657Y-1.3492
X4.4803Y-3.002
X4.4807Y-2.9705
X4.4815Y-1.424
X4.4819Y-3.0547
X4.485Y-2.2315
X4.5004Y-1.3461
X4.5114Y-1.4287
X4.5209Y-2.2827
X4.5327Y-2.2031
X4.5366Y-2.0327
X4.5369Y-2.9188
X4.5376Y-2.8809
X4.5394Y-2.1594
X4.541Y-2.9481
X4.5444Y-2.0669
X4.5453Y-2.85
X4.5471Y-1.76
X4.5519Y-1.3776
X4.5607Y-2.9922
X4.5627Y-1.5619
X4.565Y-1.4051
X4.5729Y-1.7807
X4.5778Y-1.6483
X4.5866Y-1.3827
X4.5895Y-3.1903
X4.596Y-2.2655
X4.596Y-2.226
X4.596Y-2.328
X4.5972Y-2.9457
X4.5976Y-3.0354
X4.5981Y-1.258
X4.6009Y-3.163
X4.6028Y-2.55
X4.6031Y-2.5799
X4.6051Y-2.8704
X4.6087Y-2.8079
X4.6201Y-1.3787
X4.626Y-2.508
X4.6319Y-2.5622
X4.6437Y-1.4035
X4.6581Y-1.3765
X4.6776Y-2.2256
X4.6854Y-1.8413
X4.6854Y-1.9673
X4.6877Y-1.3783
X4.7039Y-1.4035
X4.7059Y-1.9449
X4.7133Y-1.258
X4.7154Y-1.8406
X4.7172Y-1.3761
X4.74Y-3.06
X4.7476Y-1.3776
X4.758Y-2.802
X4.7634Y-1.4028
X4.7638Y-1.258
X4.764Y-2.754
X4.7688Y-2.6592
X4.77Y-2.706
X4.7772Y-1.3757
X4.7906Y-2.6827
X4.7972Y-2.8181
X4.7986Y-2.873
X4.8015Y-2.9298
X4.8019Y-2.9835
X4.8068Y-2.3135
X4.8071Y-1.378
X4.8165Y-2.7929
X4.8201Y-2.0406
X4.822Y-1.258
X4.8228Y-1.4043
X4.8299Y-2.874
X4.8312Y-2.073
X4.8335Y-3.0142
X4.8339Y-2.2165
X4.8388Y-1.3771
X4.8409Y-2.9592
X4.8685Y-2.1413
X4.8705Y-2.9571
X4.8717Y-1.3775
X4.8799Y-1.258
X4.8823Y-2.9016
X4.8874Y-1.4059
X4.8874Y-2.0819
X4.8992Y-2.1456
X4.9015Y-1.3776
X4.9126Y-2.9063
X4.9157Y-2.1024
X4.9316Y-1.3775
X4.9354Y-1.258
X4.9575Y-1.4
X5.022Y-1.938
X5.023Y-1.985
X5.0492Y-2.0004
X5.0561Y-1.9144
X5.0669Y-2.663
X5.0854Y-1.258
X5.088Y-3.408
X5.0925Y-3.3417
X5.1035Y-2.8296
X5.1073Y-2.5089
X5.1079Y-2.4756
X5.1182Y-2.6855
X5.1399Y-2.4074
X5.1437Y-2.5886
X5.1465Y-2.8343
X5.1484Y-2.8015
X5.1598Y-2.711
X5.1783Y-2.7583
X5.1787Y-2.4083
X5.1902Y-2.5063
X5.1907Y-2.714
X5.1937Y-2.8457
X5.1969Y-2.5906
X5.202Y-2.7827
X5.2124Y-2.8723
X5.2126Y-2.5654
X5.2209Y-2.4889
X5.2224Y-2.7082
X5.2322Y-2.6583
X5.2366Y-2.4268
X5.2422Y-2.4625
X5.2536Y-2.8429
X5.2571Y-2.711
X5.2615Y-2.642
X5.27Y-2.4443
X5.2778Y-1.2568
X5.2791Y-2.672
X5.2846Y-2.8551
X5.2854Y-2.6181
X5.2878Y-3.5189
X5.3295Y-2.6181
X5.3354Y-2.4728
X5.3425Y-1.2568
X5.3457Y-3.0535
X5.3472Y-2.9996
X5.372Y-2.9813
X5.4007Y-1.2619
X5.4016Y-2.9969
X5.4252Y-1.3772
X5.4262Y-2.9321
X5.4368Y-3.2619
X5.438Y-2.9675
X5.4551Y-2.9421
X5.4559Y-1.4067
X5.4583Y-1.2599
X5.4598Y-3.0172
X5.4638Y-2.9866
X5.4697Y-1.3789
X5.4996Y-1.3811
X5.5138Y-1.2599
X5.5154Y-1.4063
X5.5313Y-1.3802
X5.5472Y-1.8961
X5.563Y-3.1567
X5.5634Y-1.7039
X5.5639Y-3.3031
X5.5642Y-1.3807
X5.5657Y-1.8362
X5.5713Y-2.902
X5.5752Y-3.0575
X5.5768Y-1.2599
X5.5791Y-1.4071
X5.5917Y-2.4752
X5.5941Y-1.3808
X5.5945Y-3.0295
X5.6005Y-2.8882
X5.6035Y-1.7736
X5.6117Y-1.2599
X5.6232Y-3.1031
X5.6237Y-1.3811
X5.6275Y-3.3167
X5.6341Y-2.8882
X5.6443Y-3.1366
X5.6535Y-1.3807
X5.6535Y-1.815
X5.6535Y-3.0315
X5.6555Y-2.9102
X5.6571Y-3.3168
X5.658Y-3.108
X5.6594Y-1.924
X5.6663Y-1.8927
X5.6727Y-3.1451
X5.674Y-1.9535
X5.6764Y-3.002
X5.6843Y-2.0063
X5.6867Y-3.3184
X5.6892Y-3.1028
X5.6949Y-3.0335
X5.6965Y-1.974
X5.6996Y-1.7004
X5.7224Y-2.015
X5.726Y-1.9634
X5.735Y-1.8169
X5.7411Y-1.9902
X5.7677Y-3.1516
X5.7707Y-1.9902
X5.7717Y-1.6891
X5.781Y-3.0181
X5.7811Y-2.8937
X5.7813Y-2.9868
X5.7835Y-2.0173
X5.7839Y-1.9264
X5.7854Y-1.6618
X5.7858Y-3.2287
X5.798Y-3.15
X5.7982Y-1.9528
X5.8013Y-1.6881
X5.8013Y-2.8689
X5.8073Y-1.441
X5.8134Y-1.8118
X5.8191Y-3.2292
X5.8197Y-3.1201
X5.8278Y-1.9528
X5.8306Y-1.6837
X5.8349Y-2.8689
X5.8353Y-3.0197
X5.8411Y-3.1445
X5.8421Y-2.0157
X5.8429Y-1.9256
X5.8441Y-1.4202
X5.8476Y-1.6587
X5.848Y-2.898
X5.849Y-1.9866
X5.849Y-3.2292
X5.8543Y-1.4638
X5.86Y-1.6869
X5.8684Y-3.1331
X5.8736Y-1.5201
X5.8748Y-1.6083
X5.8785Y-3.2325
X5.8787Y-1.9868
X5.8932Y-1.6854
X5.8945Y-3.1142
X5.8949Y-3.1497
X5.8953Y-1.4551
X5.9004Y-2.7791
X5.9063Y-1.998
X5.9079Y-3.2287
X5.9104Y-1.9361
X5.9106Y-1.6583
X5.9154Y-1.9661
X5.916Y-2.8048
X5.9232Y-1.6866
X5.9284Y-3.1405
X5.9354Y-1.9165
X5.9386Y-1.887
X5.9406Y-1.7673
X5.9413Y-3.2319
X5.9437Y-1.5
X5.952Y-1.806
X5.9543Y-1.2988
X5.9715Y-3.2381
X5.9723Y-1.9014
X5.9728Y-1.9315
X5.9728Y-3.0248
X5.9831Y-2.7673
X5.9839Y-2.7971
X5.988Y-1.812
X5.9941Y-3.1024
X5.9957Y-3.0055
X6.0009Y-3.2345
X6.0024Y-3.0354
X6.0035Y-1.5012
X6.0055Y-2.9083
X6.006Y-1.896
X6.0087Y-1.9909
X6.0135Y-3.1445
X6.0256Y-3.0114
X6.029Y-2.8739
X6.0339Y-3.2351
X6.0363Y-2.9026
X6.0394Y-1.811
X6.0429Y-1.8894
X6.0519Y-2.9758
X6.0551Y-3.1024
X6.0551Y-3.1575
X6.061Y-1.5004
X6.0622Y-1.3028
X6.0674Y-3.0224
X6.0709Y-1.7736
X6.0742Y-3.2351
X6.0764Y-1.2157
X6.0773Y-2.9474
X6.0806Y-2.8749
X6.0823Y-2.9772
X6.0913Y-1.9835
X6.0966Y-3.0276
X6.0969Y-2.8492
X6.0996Y-2.7846
X6.1Y-2.7539
X6.1055Y-1.8185
X6.1055Y-1.8921
X6.1063Y-3.2413
X6.108Y-3.108
X6.108Y-3.156
X6.1185Y-1.5016
X6.1236Y-2.9908
X6.1244Y-3.0378
X6.1382Y-1.6984
X6.1398Y-1.7874
X6.15Y-1.668
X6.1508Y-2.0114
X6.1535Y-3.1575
X6.1558Y-3.002
X6.1598Y-3.1087
X6.1657Y-2.9626
X6.1667Y-1.985
X6.1819Y-1.3169
X6.1831Y-1.8142
X6.1836Y-2.9919
X6.186Y-1.662
X6.1862Y-1.6984
X6.1963Y-1.985
X6.2079Y-1.2209
X6.2098Y-1.9213
X6.2102Y-2.0118
X6.2181Y-1.8165
X6.2209Y-2.8504
X6.2212Y-2.8205
X6.222Y-1.656
X6.2238Y-1.9476
X6.2272Y-2.8961
X6.2335Y-1.4984
X6.2402Y-1.7736
X6.2534Y-1.9476
X6.2579Y-1.6976
X6.263Y-2.8272
X6.2633Y-2.7941
X6.2685Y-1.9205
X6.2713Y-2.0193
X6.2746Y-1.9815
X6.276Y-1.656
X6.2937Y-3.2705
X6.2945Y-3.139
X6.3043Y-1.9816
X6.312Y-3.018
X6.3228Y-1.811
X6.324Y-3.15
X6.3268Y-3.2657
X6.3315Y-1.961
X6.336Y-1.9309
X6.3406Y-3.0339
X6.347Y-3.2224
X6.3543Y-3.1024
X6.361Y-1.9114
X6.3622Y-2.239
X6.3638Y-1.8185
X6.3642Y-1.6909
X6.372Y-3.03
X6.3815Y-3.2433
X6.3846Y-1.8882
X6.3917Y-3.161
X6.402Y-3.192
X6.4341Y-2.7943
X6.4619Y-2.9497
X6.463Y-2.8138
X6.4756Y-2.3882
X6.4772Y-2.9161
X6.4866Y-2.5091
X6.5815Y-3.2768
X6.6138Y-2.1047
X6.615Y-3.2791
X6.6323Y-1.2728
X6.6476Y-2.5031
X6.6898Y-2.165
X6.6906Y-1.2736
X6.7299Y-1.9661
X6.7331Y-1.3941
X6.7453Y-2.5909
X6.7524Y-1.2752
X6.7569Y-1.3745
X6.7865Y-1.3763
X6.8028Y-1.4071
X6.8071Y-1.2717
X6.816Y-1.3742
X6.8409Y-2.3161
X6.8461Y-1.3748
X6.863Y-1.4004
X6.8685Y-1.2756
X6.876Y-1.3738
X6.9059Y-1.376
X6.9209Y-1.2756
X6.9224Y-1.4012
X6.9323Y-2.4067
X6.9376Y-1.3751
X6.9594Y-2.7882
X6.9705Y-1.3755
X6.9709Y-1.2756
X6.9835Y-1.4024
X6.9933Y-2.8768
X7.0087Y-2.9491
X7.0445Y-2.3079
X7.0457Y-2.239
X7.0492Y-2.9611
X7.072Y-2.2553
X7.073Y-2.2864
X7.089Y-2.9886
X7.1067Y-2.0496
X7.2146Y-3.6713
X7.3471Y-2.3983
X7.348Y-2.3594
X7.35Y-2.4539
X7.4752Y-1.4606
X7.488Y-3.45
X7.4894Y-1.261
X7.5Y-3.6614
X7.5047Y-2.6146
X7.5217Y-3.4441
X7.5496Y-2.6091
X7.554Y-3.444
X7.5787Y-1.3724
X7.5898Y-2.2559
X7.59Y-3.348
X7.6008Y-2.6256
X7.6012Y-2.7083
X7.6028Y-2.2228
X7.6069Y-2.1887
X7.614Y-3.3144
X7.648Y-1.4579
X7.65Y-3.312
X7.674Y-3.287
X7.686Y-3.438
X7.698Y-3.408
X7.713Y-1.2728
X7.7146Y-2.1394
X7.74Y-3.6
X7.7425Y-2.1154
X7.77Y-3.408
X7.7717Y-3.4402
X7.8012Y-1.587
X7.818Y-3.45
X7.83Y-3.312
X7.842Y-3.48
X7.8445Y-3.6909
T2
X1.9386Y-1.702
X1.9417Y-1.7835
X1.9421Y-1.8634
X1.9823Y-1.8232
X1.9831Y-1.7437
X2.0154Y-1.6992
X2.0201Y-1.789
X4.1134Y-3.0783
X4.1496Y-3.0429
X4.4091Y-1.5031
X4.4884Y-1.6129
X4.5791Y-1.7252
X4.7626Y-1.9602
X4.8219Y-2.1063
X6.1327Y-1.3921
X6.2748Y-1.5004
X6.3622Y-2.3327
X6.9067Y-3.2886
X6.9618Y-3.2504
X6.9921Y-3.3559
X7.0043Y-3.1744
X7.0059Y-1.7614
X7.0075Y-1.5953
X7.011Y-1.6807
X7.0146Y-1.5343
X7.0228Y-3.2382
X7.0284Y-3.0503
X7.0386Y-3.311
X7.0555Y-1.5929
X7.0689Y-1.5311
X7.0697Y-1.7638
X7.0713Y-1.6858
X7.0961Y-3.502
X7.1028Y-3.2622
X7.1504Y-2.015
X7.1602Y-3.5051
X7.1874Y-3.387
X7.1921Y-3.3366
X7.1937Y-3.4492
X7.2441Y-3.4004
X7.4606Y-3.414
X7.4756Y-3.0358
X7.5087Y-2.7709
X7.5087Y-2.8476
X7.5343Y-2.9402
X7.5437Y-3.0382
X7.5488Y-2.9043
X7.6098Y-3.1319
X7.6134Y-2.8126
X7.648Y-2.1854
X7.6882Y-2.1079
X7.6996Y-3.0378
X7.7075Y-2.7756
X7.7083Y-2.8161
X7.7598Y-2.9138
X7.7717Y-3.0335
X7.7835Y-3.1874
X7.824Y-2.5913
X7.8335Y-2.7866
T3
X1.3465Y-1.5713
X1.3465Y-3.5335
X1.3741Y-1.5044
X1.3741Y-1.6381
X1.3741Y-3.4667
X1.3741Y-3.6003
X1.4409Y-1.4768
X1.4409Y-1.6657
X1.4409Y-3.439
X1.4409Y-3.628
X1.5078Y-1.5044
X1.5078Y-1.6381
X1.5078Y-3.4667
X1.5078Y-3.6003
X1.5354Y-1.5713
X1.5354Y-3.5335
X7.2657Y-3.5492
X7.2934Y-3.4824
X7.2934Y-3.616
X7.3602Y-3.4547
X7.3602Y-3.6437
X7.427Y-3.4824
X7.427Y-3.616
X7.4547Y-3.5492
X7.5965Y-2.4713
X7.6241Y-2.4044
X7.6241Y-2.5381
X7.6909Y-2.3768
X7.6909Y-2.5657
X7.7578Y-2.4044
X7.7578Y-2.5381
X7.7854Y-2.4713
T6
X2.2496Y-3.5559
X2.3874Y-3.5559
X2.5965Y-3.5571
X2.7343Y-3.5571
X3.3799Y-3.5591
X3.5177Y-3.5591
X3.774Y-3.558
X3.9118Y-3.558
X7.5496Y-2.6736
X7.5496Y-2.8114
T7
X7.3022Y-1.9488
X7.3421Y-1.8091
X7.3821Y-1.9488
X7.422Y-1.8091
X7.462Y-1.9488
X7.5419Y-1.9488
X7.5819Y-1.8091
X7.6219Y-1.9488
X7.6618Y-1.8091
X7.7018Y-1.9488
T8
X1.338Y-1.944
X1.338Y-2.044
X1.338Y-2.144
X1.338Y-2.244
X1.338Y-2.344
X1.338Y-2.444
X1.338Y-2.544
X1.338Y-2.644
X1.438Y-1.944
X1.438Y-2.044
X1.438Y-2.144
X1.438Y-2.244
X1.438Y-2.344
X1.438Y-2.444
X1.438Y-2.544
X1.438Y-2.644
X1.8869Y-3.1387
X1.8869Y-3.2387
X1.9634Y-1.3165
X1.9634Y-1.4165
X1.9869Y-3.1387
X1.9869Y-3.2387
X2.0634Y-1.3165
X2.0634Y-1.4165
X2.0869Y-3.1387
X2.0869Y-3.2387
X2.144Y-1.71
X2.144Y-1.81
X2.1634Y-1.3165
X2.1634Y-1.4165
X2.1869Y-3.1387
X2.1869Y-3.2387
X2.244Y-1.71
X2.244Y-1.81
X2.2634Y-1.3165
X2.2634Y-1.4165
X2.2869Y-3.1387
X2.2869Y-3.2387
X2.344Y-1.71
X2.344Y-1.81
X2.3634Y-1.3165
X2.3634Y-1.4165
X2.3869Y-3.1387
X2.3869Y-3.2387
X2.444Y-1.71
X2.444Y-1.81
X2.4634Y-1.3165
X2.4634Y-1.4165
X2.4869Y-3.1387
X2.4869Y-3.2387
X2.544Y-1.71
X2.544Y-1.81
X2.5634Y-1.3165
X2.5634Y-1.4165
X2.5869Y-3.1387
X2.5869Y-3.2387
X2.644Y-1.71
X2.644Y-1.81
X2.6634Y-1.3165
X2.6634Y-1.4165
X2.6869Y-3.1387
X2.6869Y-3.2387
X2.744Y-1.71
X2.744Y-1.81
X2.7634Y-1.3165
X2.7634Y-1.4165
X2.7869Y-3.1387
X2.7869Y-3.2387
X2.844Y-1.71
X2.844Y-1.81
X2.8634Y-1.3165
X2.8634Y-1.4165
X2.8869Y-3.1387
X2.8869Y-3.2387
X2.944Y-1.71
X2.944Y-1.81
X2.9634Y-1.3165
X2.9634Y-1.4165
X2.9869Y-3.1387
X2.9869Y-3.2387
X3.044Y-1.71
X3.044Y-1.81
X3.0634Y-1.3165
X3.0634Y-1.4165
X3.0869Y-3.1387
X3.0869Y-3.2387
X3.144Y-1.71
X3.144Y-1.81
X3.1634Y-1.3165
X3.1634Y-1.4165
X3.1869Y-3.1387
X3.1869Y-3.2387
X3.244Y-1.71
X3.244Y-1.81
X3.2634Y-1.3165
X3.2634Y-1.4165
X3.2869Y-3.1387
X3.2869Y-3.2387
X3.344Y-1.71
X3.344Y-1.81
X3.3634Y-1.3165
X3.3634Y-1.4165
X3.3869Y-3.1387
X3.3869Y-3.2387
X3.444Y-1.71
X3.444Y-1.81
X3.4634Y-1.3165
X3.4634Y-1.4165
X3.4869Y-3.1387
X3.4869Y-3.2387
X3.544Y-1.71
X3.544Y-1.81
X3.5634Y-1.3165
X3.5634Y-1.4165
X3.5869Y-3.1387
X3.5869Y-3.2387
X3.644Y-1.71
X3.644Y-1.81
X3.6634Y-1.3165
X3.6634Y-1.4165
X3.6869Y-3.1387
X3.6869Y-3.2387
X3.744Y-1.71
X3.744Y-1.81
X3.7634Y-1.3165
X3.7634Y-1.4165
X3.7869Y-3.1387
X3.7869Y-3.2387
X3.844Y-1.71
X3.844Y-1.81
X3.8634Y-1.3165
X3.8634Y-1.4165
X3.944Y-1.71
X3.944Y-1.81
X4.044Y-1.71
X4.044Y-1.81
X7.1344Y-2.334
X7.1344Y-2.434
X7.1344Y-2.534
X7.1344Y-2.634
X7.1344Y-2.734
X7.1344Y-2.834
X7.1344Y-2.934
X7.1344Y-3.034
X7.2169Y-2.0449
X7.2344Y-2.334
X7.2344Y-2.434
X7.2344Y-2.534
X7.2344Y-2.634
X7.2344Y-2.734
X7.2344Y-2.834
X7.2344Y-2.934
X7.2344Y-3.034
X7.3169Y-2.0449
X7.3642Y-1.589
X7.3642Y-1.6921
X7.4626Y-1.589
X7.4626Y-1.6921
X7.5413Y-1.589
X7.5413Y-1.6921
X7.587Y-2.0449
X7.6398Y-1.589
X7.6398Y-1.6921
X7.687Y-2.0449
X7.787Y-2.0449
T9
X2.9067Y-3.5693
X3.0067Y-3.5693
X3.1067Y-3.5693
X3.2067Y-3.5693
T10
X4.1479Y-3.3955
X4.1479Y-3.612
X4.3133Y-3.3955
X4.3133Y-3.612
X4.4786Y-3.3955
X4.4786Y-3.612
X4.644Y-3.3955
X4.644Y-3.612
X5.2579Y-3.4075
X5.2579Y-3.624
X5.4232Y-3.4075
X5.4232Y-3.624
X5.5886Y-3.4075
X5.5886Y-3.624
X5.7539Y-3.4075
X5.7539Y-3.624
X5.9193Y-3.4075
X5.9193Y-3.624
X6.0846Y-3.4075
X6.0846Y-3.624
X6.25Y-3.4075
X6.25Y-3.624
X6.4154Y-3.4075
X6.4154Y-3.624
X6.5807Y-3.4075
X6.5807Y-3.624
X6.7461Y-3.4075
X6.7461Y-3.624
X6.9114Y-3.4075
X6.9114Y-3.624
X7.0768Y-3.4075
X7.0768Y-3.624
X7.5157Y-3.1154
X7.7323Y-3.1154
T11
X7.1844Y-1.3839
X7.1844Y-1.802
X7.8195Y-1.3839
X7.8195Y-1.802
T12
X1.4409Y-1.5713
X1.4409Y-3.5335
X7.3602Y-3.5492
X7.6909Y-2.4713
T4
G00X7.5947Y-3.5498
M15
G01X7.5947Y-3.5341
M16
G05
G00X7.7852Y-3.5498
M15
G01X7.7852Y-3.5341
M16
G05
T5
G00X7.5825Y-3.6699
M15
G01X7.5825Y-3.6502
M16
G05
G00X7.7974Y-3.6699
M15
G01X7.7974Y-3.6502
M16
G05
T7
G00X5.815Y-1.3303
M15
G01X5.815Y-1.2988
M16
G05
G00X5.815Y-1.5807
M15
G01X5.815Y-1.5177
M16
G05
G00X6.3858Y-1.3303
M15
G01X6.3858Y-1.2988
M16
G05
G00X6.3858Y-1.5807
M15
G01X6.3858Y-1.5177
M16
G05
T0
M30
